{"title":"The Art of Flight (2011) 3D OU 2160p","uid":15188407,"size":7071562423,"categoryP":"video","categoryS":"3d","magnet":"?xt=urn:btih:5735c789676a1ce6767144ef1bbab444fb834f7f&amp;dn=The+Art+of+Flight+%282011%29+3D+OU+2160p&amp;tr=udp%3A%2F%2Ftracker.leechers-paradise.org%3A6969&amp;tr=udp%3A%2F%2Fzer0day.ch%3A1337&amp;tr=udp%3A%2F%2Fopen.demonii.com%3A1337&amp;tr=udp%3A%2F%2Ftracker.coppersurfer.tk%3A6969&amp;tr=udp%3A%2F%2Fexodus.desync.com%3A6969","seeders":2,"leechers":2,"uploader":"baltic8","files":1,"time":1467505412,"description":"http://www.imdb.com/title/tt1646967/\r\n\r\nVideo\r\nFormat                                   : HEVC\r\nFormat/Info                              : High Efficiency Video Coding\r\nFormat profile                           :   @Main\r\nMultiView_Count                          : 2\r\nMultiView_Layout                         : Top-Bottom (left eye first)\r\nCodec ID                                 : V_MPEGH/ISO/HEVC\r\nDuration                                 : 1h 20mn\r\nBit rate                                 : 11.2 Mbps\r\nWidth                                    : 1 920 pixels\r\nHeight                                   : 2 160 pixels\r\nDisplay aspect ratio                     : 16:9\r\nOriginal display aspect ratio            : 0.889\r\nFrame rate mode                          : Constant\r\nFrame rate                               : 23.976 (24000/1001) fps\r\nColor space                              : YUV\r\nChroma subsampling                       : 4:2:0\r\nBit depth                                : 8 bits\r\nStream size                              : 6.32 GiB (96%)\r\n\r\nAudio\r\nID                                       : 2\r\nFormat                                   : AAC\r\nFormat/Info                              : Advanced Audio Codec\r\nFormat profile                           : LC\r\nCodec ID                                 : A_AAC\r\nDuration                                 : 1h 20mn\r\nBit rate                                 : 469 Kbps\r\nChannel(s)                               : 6 channels\r\nChannel positions                        : Front: L C R, Side: L R, LFE\r\nSampling rate                            : 48.0 KHz\r\nFrame rate                               : 46.875 fps (1024 spf)\r\nCompression mode                         : Lossy\r\nDelay relative to video                  : 9ms\r\nStream size                              : 271 MiB (4%)\r\nLanguage                                 : English","torrent":{"xt":"urn:btih:5735c789676a1ce6767144ef1bbab444fb834f7f","amp;dn":"The+Art+of+Flight+%282011%29+3D+OU+2160p","amp;tr":["udp%3A%2F%2Ftracker.leechers-paradise.org%3A6969","udp%3A%2F%2Fzer0day.ch%3A1337","udp%3A%2F%2Fopen.demonii.com%3A1337","udp%3A%2F%2Ftracker.coppersurfer.tk%3A6969","udp%3A%2F%2Fexodus.desync.com%3A6969"],"infoHash":"5735c789676a1ce6767144ef1bbab444fb834f7f","infoHashBuffer":{"type":"Buffer","data":[87,53,199,137,103,106,28,230,118,113,68,239,27,186,180,68,251,131,79,127]},"announce":[],"urlList":[]}}